<svg width="393" height="203" viewBox="0 0 393 203" fill="none" xmlns="http://www.w3.org/2000/svg">
<path d="M99.9689 126.084C101.464 137.206 110.978 145.783 122.5 145.783C140.333 146.62 540.946 146.924 548.105 146.924L548.105 202.217C527.55 202.217 124.779 201.521 121.264 201.521C99.7652 201.521 80.5411 191.763 67.7765 176.429C67.6712 176.303 67.3974 176.204 67.4606 176.043C57.9188 201.528 39.3968 201.528 25.1367 201.528L-19.7231 201.528L-19.7231 146.62L-1.64661 146.62C1.11303 146.62 15.2239 146.228 18.1545 146.228L25.0834 146.228C42.9454 146.376 51.698 134.745 51.698 112.241L51.5276 90.9905C51.5276 88.5369 51.647 86.1183 51.8998 83.7279C52.8125 74.8413 55.4033 66.4468 59.3422 58.8678C70.9413 36.5177 94.267 21.2613 121.158 21.2613L179.472 21.2613L179.472 0.570296L228.943 50.5155L179.472 100.461L179.472 76.9996L122.401 76.9997C109.847 76.9997 99.6663 87.194 99.6663 99.7647L99.7653 123.011C99.7653 124.052 99.8355 125.078 99.9689 126.084Z" fill="#C8F003"/>
</svg>
