<svg width="210" height="183" viewBox="0 0 210 183" fill="none" xmlns="http://www.w3.org/2000/svg">
<path d="M23.9443 167.918C22.355 156.087 12.2446 146.962 0.000189414 146.962L-2.8257e-06 118L0.000190728 87.6611C22.8474 87.6611 44.5905 98.0494 58.1555 114.361C58.2675 114.496 58.5584 114.6 58.4913 114.772C68.6315 87.6611 88.3152 87.6611 103.47 87.6611C138.833 91.6358 136.698 75.273 136.698 59.6769L136.698 61.4592L106.92 61.4592L162.207 -0.000617442L209.559 61.4592L183.296 61.4592C183.288 94.771 181.452 124.611 153.15 138.986C143.531 143.88 141.765 143.998 131.933 146.072C129.063 146.677 114.002 146.955 110.887 146.955L103.47 146.955C84.4874 146.798 75.2425 158.704 75.2425 182.645L24.1607 182.645L24.1607 171.187C24.1607 170.08 24.0861 168.988 23.9443 167.918Z" fill="#4234F0"/>
</svg>
