<svg width="2559" height="710" viewBox="0 0 2559 710" fill="none" xmlns="http://www.w3.org/2000/svg">
<path d="M380.478 469.273C385.232 504.646 415.474 531.925 452.1 531.925C508.788 534.587 2536 533.339 2558.76 533.339L2558.76 709.191L448.172 709.191C379.831 709.191 318.721 678.156 278.145 629.39C277.81 628.987 276.939 628.674 277.14 628.16C246.809 709.213 187.931 709.213 142.601 709.213L0.00021314 709.213L0.000220773 534.587L57.4619 534.587C66.2341 534.587 111.09 533.339 120.406 533.339L142.431 533.339C199.211 533.808 227.034 496.82 227.034 425.247L226.811 289.779C226.811 281.976 227.19 274.284 227.994 266.682C230.895 238.42 239.131 211.722 251.652 187.619C288.523 116.538 362.667 68.0176 448.149 68.0176L748.501 65.804L748.501 -7.91289e-05L905.761 158.842L748.501 317.684L748.501 243.07L452.1 245.284C412.193 245.284 379.831 277.705 379.831 317.684L379.831 459.502C379.831 462.811 380.054 466.076 380.478 469.273Z" fill="#C8F003"/>
</svg>
