<svg width="959" height="875" viewBox="0 0 959 875" fill="none" xmlns="http://www.w3.org/2000/svg">
<path d="M207.79 162.905V418.585L207.774 418.536C207.774 468.561 185.071 513.293 149.396 542.994C149.102 543.239 148.873 543.876 148.497 543.729C207.79 565.932 207.79 609.03 207.79 642.211C199.097 719.64 234.883 714.967 268.992 714.967H823.607V649.765L958.021 770.82L823.607 874.499V816.995L265.616 816.995C192.552 816.995 127.055 813.104 95.5406 750.99C84.8386 729.927 84.5802 726.061 80.0449 704.532C78.7213 698.249 78.1133 665.271 78.1133 658.452V642.211C78.4568 600.649 52.4168 580.407 0.0585938 580.407V468.561H25.1172C27.5381 468.561 29.9261 468.398 32.2652 468.087C58.1416 464.608 78.097 442.47 78.097 415.661V172.495C78.097 143.284 54.3796 119.595 25.1336 119.595H0.0585938L0.05867 0.871094H45.5633C135.166 0.871094 207.79 73.409 207.79 162.905Z" fill="#4234F0"/>
</svg>
