<svg width="959" height="874" viewBox="0 0 959 874" fill="none" xmlns="http://www.w3.org/2000/svg">
<path d="M208.262 162.136V417.816L208.246 417.767C208.246 467.792 185.543 512.523 149.868 542.225C149.574 542.47 149.345 543.107 148.969 542.96C208.262 565.162 208.262 608.26 208.262 641.442C199.569 718.871 235.355 714.197 269.465 714.197H824.079V648.996L958.493 770.05L824.079 873.729V816.226L266.088 816.226C193.024 816.226 127.527 812.335 96.0126 750.22C85.3106 729.157 85.0523 725.292 80.5169 703.763C79.1933 697.479 78.5854 664.502 78.5854 657.683V641.442C78.9289 599.879 52.8888 579.637 0.53064 579.637V467.792H25.5893C28.0101 467.792 30.3982 467.628 32.7372 467.318C58.6137 463.838 78.569 441.701 78.569 414.891V171.726C78.569 142.514 54.8516 118.825 25.6057 118.825H0.53064L0.530716 0.101562H46.0353C135.638 0.101562 208.262 72.6395 208.262 162.136Z" fill="#4234F0"/>
<path d="M263.528 773V743.909H269.679V755.912H282.165V743.909H288.301V773H282.165V760.983H269.679V773H263.528Z" fill="white"/>
<path d="M299.48 773.412C298.088 773.412 296.847 773.17 295.758 772.688C294.669 772.195 293.808 771.471 293.173 770.514C292.548 769.548 292.236 768.346 292.236 766.906C292.236 765.694 292.458 764.676 292.903 763.852C293.348 763.028 293.955 762.366 294.722 761.864C295.489 761.362 296.36 760.983 297.335 760.727C298.32 760.472 299.352 760.292 300.432 760.188C301.701 760.055 302.723 759.932 303.5 759.818C304.276 759.695 304.84 759.515 305.19 759.278C305.541 759.042 305.716 758.691 305.716 758.227V758.142C305.716 757.242 305.432 756.546 304.864 756.054C304.305 755.562 303.509 755.315 302.477 755.315C301.388 755.315 300.522 755.557 299.878 756.04C299.234 756.513 298.808 757.11 298.599 757.83L293.003 757.375C293.287 756.049 293.846 754.903 294.679 753.938C295.512 752.962 296.587 752.214 297.903 751.693C299.229 751.163 300.763 750.898 302.506 750.898C303.718 750.898 304.878 751.04 305.986 751.324C307.103 751.608 308.093 752.048 308.955 752.645C309.826 753.241 310.512 754.009 311.014 754.946C311.516 755.874 311.767 756.987 311.767 758.284V773H306.028V769.974H305.858C305.508 770.656 305.039 771.258 304.452 771.778C303.865 772.29 303.159 772.692 302.335 772.986C301.511 773.27 300.56 773.412 299.48 773.412ZM301.213 769.236C302.103 769.236 302.889 769.061 303.571 768.71C304.253 768.35 304.788 767.867 305.176 767.261C305.564 766.655 305.758 765.969 305.758 765.202V762.886C305.569 763.009 305.309 763.123 304.977 763.227C304.655 763.322 304.291 763.412 303.883 763.497C303.476 763.573 303.069 763.644 302.662 763.71C302.255 763.767 301.885 763.819 301.554 763.866C300.844 763.971 300.223 764.136 299.693 764.364C299.163 764.591 298.751 764.899 298.457 765.287C298.164 765.666 298.017 766.139 298.017 766.707C298.017 767.531 298.315 768.161 298.912 768.597C299.518 769.023 300.285 769.236 301.213 769.236Z" fill="white"/>
<path d="M316.575 773V743.909H322.626V754.847H322.811C323.076 754.259 323.46 753.663 323.962 753.057C324.473 752.441 325.136 751.93 325.95 751.523C326.774 751.106 327.797 750.898 329.018 750.898C330.609 750.898 332.077 751.314 333.422 752.148C334.767 752.972 335.841 754.217 336.646 755.884C337.451 757.541 337.854 759.619 337.854 762.119C337.854 764.553 337.461 766.608 336.675 768.284C335.898 769.951 334.838 771.215 333.493 772.077C332.158 772.929 330.661 773.355 329.004 773.355C327.83 773.355 326.831 773.161 326.007 772.773C325.193 772.384 324.525 771.897 324.004 771.31C323.483 770.713 323.086 770.112 322.811 769.506H322.541V773H316.575ZM322.499 762.091C322.499 763.388 322.678 764.52 323.038 765.486C323.398 766.452 323.919 767.205 324.601 767.744C325.283 768.275 326.111 768.54 327.087 768.54C328.071 768.54 328.905 768.27 329.587 767.73C330.268 767.181 330.785 766.423 331.135 765.457C331.495 764.482 331.675 763.36 331.675 762.091C331.675 760.831 331.499 759.723 331.149 758.767C330.799 757.811 330.283 757.062 329.601 756.523C328.919 755.983 328.081 755.713 327.087 755.713C326.102 755.713 325.268 755.973 324.587 756.494C323.914 757.015 323.398 757.754 323.038 758.71C322.678 759.667 322.499 760.794 322.499 762.091Z" fill="white"/>
<path d="M347.942 743.909V773H341.891V743.909H347.942Z" fill="white"/>
<path d="M362.733 773.426C360.489 773.426 358.557 772.972 356.937 772.062C355.328 771.144 354.087 769.847 353.216 768.17C352.345 766.485 351.909 764.492 351.909 762.19C351.909 759.946 352.345 757.976 353.216 756.281C354.087 754.586 355.313 753.265 356.895 752.318C358.486 751.371 360.351 750.898 362.491 750.898C363.931 750.898 365.271 751.13 366.511 751.594C367.761 752.048 368.85 752.735 369.778 753.653C370.716 754.572 371.445 755.727 371.966 757.119C372.487 758.502 372.747 760.121 372.747 761.977V763.639H354.324V759.889H367.051C367.051 759.018 366.862 758.246 366.483 757.574C366.104 756.902 365.579 756.376 364.906 755.997C364.243 755.609 363.472 755.415 362.591 755.415C361.672 755.415 360.858 755.628 360.148 756.054C359.447 756.471 358.898 757.034 358.5 757.744C358.102 758.445 357.899 759.226 357.889 760.088V763.653C357.889 764.733 358.088 765.666 358.486 766.452C358.893 767.238 359.466 767.844 360.205 768.27C360.943 768.696 361.819 768.909 362.832 768.909C363.505 768.909 364.12 768.814 364.679 768.625C365.238 768.436 365.716 768.151 366.114 767.773C366.511 767.394 366.814 766.93 367.023 766.381L372.619 766.75C372.335 768.095 371.753 769.269 370.872 770.273C370.001 771.267 368.874 772.044 367.491 772.602C366.118 773.152 364.532 773.426 362.733 773.426Z" fill="white"/>
<path d="M376.696 773V751.182H382.463V755.031H382.719C383.173 753.753 383.931 752.744 384.991 752.006C386.052 751.267 387.321 750.898 388.798 750.898C390.294 750.898 391.568 751.272 392.619 752.02C393.67 752.759 394.371 753.762 394.722 755.031H394.949C395.394 753.781 396.199 752.782 397.364 752.034C398.538 751.277 399.925 750.898 401.526 750.898C403.562 750.898 405.214 751.546 406.483 752.844C407.761 754.132 408.401 755.959 408.401 758.327V773H402.364V759.52C402.364 758.308 402.042 757.399 401.398 756.793C400.754 756.187 399.949 755.884 398.983 755.884C397.884 755.884 397.027 756.234 396.412 756.935C395.796 757.626 395.489 758.54 395.489 759.676V773H389.622V759.392C389.622 758.322 389.314 757.47 388.699 756.835C388.093 756.201 387.293 755.884 386.298 755.884C385.626 755.884 385.02 756.054 384.48 756.395C383.95 756.726 383.528 757.195 383.216 757.801C382.903 758.398 382.747 759.098 382.747 759.903V773H376.696Z" fill="white"/>
<path d="M423.038 773.426C420.832 773.426 418.924 772.957 417.314 772.02C415.714 771.073 414.478 769.757 413.607 768.071C412.735 766.376 412.3 764.411 412.3 762.176C412.3 759.922 412.735 757.953 413.607 756.267C414.478 754.572 415.714 753.256 417.314 752.318C418.924 751.371 420.832 750.898 423.038 750.898C425.245 750.898 427.148 751.371 428.749 752.318C430.358 753.256 431.599 754.572 432.47 756.267C433.341 757.953 433.777 759.922 433.777 762.176C433.777 764.411 433.341 766.376 432.47 768.071C431.599 769.757 430.358 771.073 428.749 772.02C427.148 772.957 425.245 773.426 423.038 773.426ZM423.067 768.739C424.071 768.739 424.909 768.455 425.581 767.886C426.253 767.309 426.76 766.523 427.101 765.528C427.451 764.534 427.626 763.402 427.626 762.134C427.626 760.865 427.451 759.733 427.101 758.739C426.76 757.744 426.253 756.958 425.581 756.381C424.909 755.803 424.071 755.514 423.067 755.514C422.053 755.514 421.201 755.803 420.51 756.381C419.828 756.958 419.312 757.744 418.962 758.739C418.621 759.733 418.45 760.865 418.45 762.134C418.45 763.402 418.621 764.534 418.962 765.528C419.312 766.523 419.828 767.309 420.51 767.886C421.201 768.455 422.053 768.739 423.067 768.739Z" fill="white"/>
<path d="M455.865 757.403L450.325 757.744C450.231 757.271 450.027 756.845 449.714 756.466C449.402 756.078 448.99 755.77 448.479 755.543C447.977 755.306 447.375 755.188 446.675 755.188C445.737 755.188 444.946 755.386 444.303 755.784C443.659 756.172 443.337 756.693 443.337 757.347C443.337 757.867 443.545 758.308 443.962 758.668C444.378 759.027 445.093 759.316 446.107 759.534L450.055 760.33C452.177 760.765 453.758 761.466 454.8 762.432C455.841 763.398 456.362 764.667 456.362 766.239C456.362 767.669 455.941 768.923 455.098 770.003C454.265 771.082 453.119 771.925 451.66 772.531C450.212 773.128 448.54 773.426 446.646 773.426C443.758 773.426 441.457 772.825 439.743 771.622C438.038 770.41 437.039 768.762 436.746 766.679L442.697 766.366C442.877 767.247 443.313 767.92 444.004 768.384C444.696 768.838 445.581 769.065 446.66 769.065C447.721 769.065 448.573 768.862 449.217 768.455C449.871 768.038 450.202 767.503 450.212 766.849C450.202 766.3 449.97 765.85 449.516 765.5C449.061 765.14 448.36 764.866 447.413 764.676L443.635 763.923C441.504 763.497 439.918 762.759 438.876 761.707C437.844 760.656 437.328 759.316 437.328 757.688C437.328 756.286 437.707 755.079 438.464 754.065C439.231 753.052 440.306 752.271 441.689 751.722C443.081 751.172 444.71 750.898 446.575 750.898C449.331 750.898 451.499 751.48 453.081 752.645C454.672 753.81 455.6 755.396 455.865 757.403Z" fill="white"/>
<path d="M477.47 773.355C475.813 773.355 474.312 772.929 472.967 772.077C471.632 771.215 470.571 769.951 469.785 768.284C469.009 766.608 468.621 764.553 468.621 762.119C468.621 759.619 469.023 757.541 469.828 755.884C470.633 754.217 471.703 752.972 473.038 752.148C474.383 751.314 475.856 750.898 477.456 750.898C478.678 750.898 479.696 751.106 480.51 751.523C481.334 751.93 481.997 752.441 482.499 753.057C483.01 753.663 483.398 754.259 483.663 754.847H483.848V743.909H489.885V773H483.919V769.506H483.663C483.379 770.112 482.977 770.713 482.456 771.31C481.945 771.897 481.277 772.384 480.453 772.773C479.639 773.161 478.644 773.355 477.47 773.355ZM479.388 768.54C480.363 768.54 481.187 768.275 481.859 767.744C482.541 767.205 483.062 766.452 483.422 765.486C483.791 764.52 483.976 763.388 483.976 762.091C483.976 760.794 483.796 759.667 483.436 758.71C483.076 757.754 482.555 757.015 481.874 756.494C481.192 755.973 480.363 755.713 479.388 755.713C478.393 755.713 477.555 755.983 476.874 756.523C476.192 757.062 475.676 757.811 475.325 758.767C474.975 759.723 474.8 760.831 474.8 762.091C474.8 763.36 474.975 764.482 475.325 765.457C475.685 766.423 476.201 767.181 476.874 767.73C477.555 768.27 478.393 768.54 479.388 768.54Z" fill="white"/>
<path d="M504.803 773.426C502.559 773.426 500.627 772.972 499.008 772.062C497.398 771.144 496.157 769.847 495.286 768.17C494.415 766.485 493.979 764.492 493.979 762.19C493.979 759.946 494.415 757.976 495.286 756.281C496.157 754.586 497.384 753.265 498.965 752.318C500.556 751.371 502.422 750.898 504.562 750.898C506.001 750.898 507.341 751.13 508.582 751.594C509.832 752.048 510.921 752.735 511.849 753.653C512.786 754.572 513.515 755.727 514.036 757.119C514.557 758.502 514.817 760.121 514.817 761.977V763.639H496.394V759.889H509.121C509.121 759.018 508.932 758.246 508.553 757.574C508.174 756.902 507.649 756.376 506.977 755.997C506.314 755.609 505.542 755.415 504.661 755.415C503.743 755.415 502.928 755.628 502.218 756.054C501.517 756.471 500.968 757.034 500.57 757.744C500.173 758.445 499.969 759.226 499.959 760.088V763.653C499.959 764.733 500.158 765.666 500.556 766.452C500.963 767.238 501.536 767.844 502.275 768.27C503.013 768.696 503.889 768.909 504.903 768.909C505.575 768.909 506.191 768.814 506.749 768.625C507.308 768.436 507.786 768.151 508.184 767.773C508.582 767.394 508.885 766.93 509.093 766.381L514.69 766.75C514.405 768.095 513.823 769.269 512.942 770.273C512.071 771.267 510.944 772.044 509.562 772.602C508.189 773.152 506.602 773.426 504.803 773.426Z" fill="white"/>
<path d="M539.629 751.182V755.727H526.49V751.182H539.629ZM529.473 745.955H535.524V766.295C535.524 766.854 535.609 767.29 535.78 767.602C535.95 767.905 536.187 768.118 536.49 768.241C536.803 768.365 537.162 768.426 537.57 768.426C537.854 768.426 538.138 768.402 538.422 768.355C538.706 768.298 538.924 768.256 539.075 768.227L540.027 772.73C539.724 772.825 539.298 772.934 538.749 773.057C538.199 773.189 537.532 773.27 536.746 773.298C535.287 773.355 534.009 773.161 532.91 772.716C531.821 772.271 530.974 771.58 530.368 770.642C529.762 769.705 529.463 768.521 529.473 767.091V745.955Z" fill="white"/>
<path d="M557.562 763.71V751.182H563.614V773H557.804V769.037H557.577C557.084 770.315 556.265 771.343 555.119 772.119C553.983 772.896 552.596 773.284 550.957 773.284C549.499 773.284 548.216 772.953 547.108 772.29C546 771.627 545.133 770.685 544.508 769.463C543.893 768.241 543.58 766.778 543.571 765.074V751.182H549.622V763.994C549.632 765.282 549.977 766.3 550.659 767.048C551.341 767.796 552.255 768.17 553.401 768.17C554.13 768.17 554.812 768.005 555.446 767.673C556.08 767.332 556.592 766.83 556.98 766.168C557.378 765.505 557.572 764.686 557.562 763.71Z" fill="white"/>
<path d="M583.763 743.909V773H577.712V743.909H583.763Z" fill="white"/>
<path d="M598.468 773.426C596.262 773.426 594.353 772.957 592.744 772.02C591.143 771.073 589.907 769.757 589.036 768.071C588.165 766.376 587.729 764.411 587.729 762.176C587.729 759.922 588.165 757.953 589.036 756.267C589.907 754.572 591.143 753.256 592.744 752.318C594.353 751.371 596.262 750.898 598.468 750.898C600.674 750.898 602.578 751.371 604.178 752.318C605.788 753.256 607.029 754.572 607.9 756.267C608.771 757.953 609.207 759.922 609.207 762.176C609.207 764.411 608.771 766.376 607.9 768.071C607.029 769.757 605.788 771.073 604.178 772.02C602.578 772.957 600.674 773.426 598.468 773.426ZM598.496 768.739C599.5 768.739 600.338 768.455 601.011 767.886C601.683 767.309 602.19 766.523 602.531 765.528C602.881 764.534 603.056 763.402 603.056 762.134C603.056 760.865 602.881 759.733 602.531 758.739C602.19 757.744 601.683 756.958 601.011 756.381C600.338 755.803 599.5 755.514 598.496 755.514C597.483 755.514 596.631 755.803 595.94 756.381C595.258 756.958 594.742 757.744 594.391 758.739C594.05 759.733 593.88 760.865 593.88 762.134C593.88 763.402 594.05 764.534 594.391 765.528C594.742 766.523 595.258 767.309 595.94 767.886C596.631 768.455 597.483 768.739 598.496 768.739Z" fill="white"/>
<path d="M622.971 781.636C621.011 781.636 619.33 781.366 617.928 780.827C616.536 780.296 615.428 779.572 614.604 778.653C613.781 777.735 613.245 776.703 612.999 775.557L618.596 774.804C618.766 775.24 619.036 775.647 619.406 776.026C619.775 776.404 620.263 776.707 620.869 776.935C621.484 777.171 622.232 777.29 623.113 777.29C624.429 777.29 625.513 776.968 626.366 776.324C627.227 775.689 627.658 774.624 627.658 773.128V769.136H627.403C627.137 769.742 626.74 770.315 626.209 770.855C625.679 771.395 624.997 771.835 624.164 772.176C623.331 772.517 622.336 772.688 621.181 772.688C619.543 772.688 618.051 772.309 616.707 771.551C615.371 770.784 614.306 769.615 613.511 768.043C612.725 766.461 612.332 764.463 612.332 762.048C612.332 759.577 612.734 757.512 613.539 755.855C614.344 754.198 615.414 752.957 616.749 752.134C618.094 751.31 619.566 750.898 621.167 750.898C622.388 750.898 623.411 751.106 624.235 751.523C625.059 751.93 625.722 752.441 626.224 753.057C626.735 753.663 627.128 754.259 627.403 754.847H627.63V751.182H633.638V773.213C633.638 775.069 633.184 776.622 632.275 777.872C631.366 779.122 630.106 780.06 628.496 780.685C626.896 781.319 625.054 781.636 622.971 781.636ZM623.099 768.142C624.074 768.142 624.898 767.901 625.57 767.418C626.252 766.925 626.773 766.224 627.133 765.315C627.502 764.397 627.687 763.298 627.687 762.02C627.687 760.741 627.507 759.634 627.147 758.696C626.787 757.749 626.266 757.015 625.584 756.494C624.903 755.973 624.074 755.713 623.099 755.713C622.104 755.713 621.266 755.983 620.584 756.523C619.903 757.053 619.387 757.792 619.036 758.739C618.686 759.686 618.511 760.779 618.511 762.02C618.511 763.279 618.686 764.368 619.036 765.287C619.396 766.196 619.912 766.901 620.584 767.403C621.266 767.896 622.104 768.142 623.099 768.142Z" fill="white"/>
<path d="M638.454 773V751.182H644.505V773H638.454ZM639.32 748.369L642.332 741.906H647.928L643.596 748.369H639.32Z" fill="white"/>
<path d="M667.506 757.403L661.966 757.744C661.871 757.271 661.668 756.845 661.355 756.466C661.043 756.078 660.631 755.77 660.119 755.543C659.617 755.306 659.016 755.188 658.315 755.188C657.378 755.188 656.587 755.386 655.943 755.784C655.299 756.172 654.977 756.693 654.977 757.347C654.977 757.867 655.186 758.308 655.602 758.668C656.019 759.027 656.734 759.316 657.747 759.534L661.696 760.33C663.817 760.765 665.399 761.466 666.44 762.432C667.482 763.398 668.003 764.667 668.003 766.239C668.003 767.669 667.581 768.923 666.739 770.003C665.905 771.082 664.759 771.925 663.301 772.531C661.852 773.128 660.181 773.426 658.287 773.426C655.399 773.426 653.097 772.825 651.383 771.622C649.679 770.41 648.68 768.762 648.386 766.679L654.338 766.366C654.518 767.247 654.954 767.92 655.645 768.384C656.336 768.838 657.222 769.065 658.301 769.065C659.362 769.065 660.214 768.862 660.858 768.455C661.511 768.038 661.843 767.503 661.852 766.849C661.843 766.3 661.611 765.85 661.156 765.5C660.702 765.14 660.001 764.866 659.054 764.676L655.276 763.923C653.145 763.497 651.559 762.759 650.517 761.707C649.485 760.656 648.969 759.316 648.969 757.688C648.969 756.286 649.348 755.079 650.105 754.065C650.872 753.052 651.947 752.271 653.33 751.722C654.722 751.172 656.35 750.898 658.216 750.898C660.972 750.898 663.14 751.48 664.722 752.645C666.312 753.81 667.241 755.396 667.506 757.403Z" fill="white"/>
<path d="M683.418 751.182V755.727H670.279V751.182H683.418ZM673.262 745.955H679.313V766.295C679.313 766.854 679.398 767.29 679.569 767.602C679.739 767.905 679.976 768.118 680.279 768.241C680.592 768.365 680.951 768.426 681.359 768.426C681.643 768.426 681.927 768.402 682.211 768.355C682.495 768.298 682.713 768.256 682.864 768.227L683.816 772.73C683.513 772.825 683.087 772.934 682.538 773.057C681.988 773.189 681.321 773.27 680.535 773.298C679.076 773.355 677.798 773.161 676.7 772.716C675.611 772.271 674.763 771.58 674.157 770.642C673.551 769.705 673.253 768.521 673.262 767.091V745.955Z" fill="white"/>
<path d="M687.36 773V751.182H693.411V773H687.36ZM690.4 748.369C689.5 748.369 688.728 748.071 688.084 747.474C687.45 746.868 687.133 746.144 687.133 745.301C687.133 744.468 687.45 743.753 688.084 743.156C688.728 742.55 689.5 742.247 690.4 742.247C691.299 742.247 692.067 742.55 692.701 743.156C693.345 743.753 693.667 744.468 693.667 745.301C693.667 746.144 693.345 746.868 692.701 747.474C692.067 748.071 691.299 748.369 690.4 748.369Z" fill="white"/>
<path d="M708.116 773.426C705.882 773.426 703.959 772.953 702.349 772.006C700.749 771.049 699.518 769.723 698.656 768.028C697.804 766.333 697.378 764.383 697.378 762.176C697.378 759.941 697.809 757.981 698.67 756.295C699.542 754.6 700.777 753.279 702.378 752.332C703.978 751.376 705.882 750.898 708.088 750.898C709.991 750.898 711.658 751.243 713.088 751.935C714.518 752.626 715.65 753.597 716.483 754.847C717.316 756.097 717.776 757.564 717.861 759.25H712.151C711.99 758.161 711.563 757.285 710.872 756.622C710.19 755.95 709.295 755.614 708.188 755.614C707.25 755.614 706.431 755.869 705.73 756.381C705.039 756.883 704.499 757.616 704.111 758.582C703.723 759.548 703.528 760.718 703.528 762.091C703.528 763.483 703.718 764.667 704.097 765.642C704.485 766.617 705.029 767.361 705.73 767.872C706.431 768.383 707.25 768.639 708.188 768.639C708.879 768.639 709.499 768.497 710.048 768.213C710.607 767.929 711.066 767.517 711.426 766.977C711.795 766.428 712.037 765.77 712.151 765.003H717.861C717.766 766.67 717.312 768.137 716.497 769.406C715.692 770.666 714.58 771.651 713.159 772.361C711.739 773.071 710.058 773.426 708.116 773.426Z" fill="white"/>
<path d="M727.957 773.412C726.565 773.412 725.324 773.17 724.235 772.688C723.146 772.195 722.284 771.471 721.65 770.514C721.025 769.548 720.712 768.346 720.712 766.906C720.712 765.694 720.935 764.676 721.38 763.852C721.825 763.028 722.431 762.366 723.198 761.864C723.965 761.362 724.836 760.983 725.812 760.727C726.797 760.472 727.829 760.292 728.908 760.188C730.177 760.055 731.2 759.932 731.977 759.818C732.753 759.695 733.316 759.515 733.667 759.278C734.017 759.042 734.192 758.691 734.192 758.227V758.142C734.192 757.242 733.908 756.546 733.34 756.054C732.781 755.562 731.986 755.315 730.954 755.315C729.865 755.315 728.998 755.557 728.354 756.04C727.71 756.513 727.284 757.11 727.076 757.83L721.479 757.375C721.763 756.049 722.322 754.903 723.156 753.938C723.989 752.962 725.064 752.214 726.38 751.693C727.706 751.163 729.24 750.898 730.982 750.898C732.194 750.898 733.354 751.04 734.462 751.324C735.58 751.608 736.569 752.048 737.431 752.645C738.302 753.241 738.989 754.009 739.491 754.946C739.993 755.874 740.244 756.987 740.244 758.284V773H734.505V769.974H734.334C733.984 770.656 733.515 771.258 732.928 771.778C732.341 772.29 731.636 772.692 730.812 772.986C729.988 773.27 729.036 773.412 727.957 773.412ZM729.69 769.236C730.58 769.236 731.366 769.061 732.048 768.71C732.729 768.35 733.264 767.867 733.653 767.261C734.041 766.655 734.235 765.969 734.235 765.202V762.886C734.046 763.009 733.785 763.123 733.454 763.227C733.132 763.322 732.767 763.412 732.36 763.497C731.953 763.573 731.546 763.644 731.138 763.71C730.731 763.767 730.362 763.819 730.031 763.866C729.32 763.971 728.7 764.136 728.17 764.364C727.639 764.591 727.227 764.899 726.934 765.287C726.64 765.666 726.494 766.139 726.494 766.707C726.494 767.531 726.792 768.161 727.388 768.597C727.995 769.023 728.762 769.236 729.69 769.236Z" fill="white"/>
</svg>
