<svg width="25" height="34" viewBox="0 0 25 34" fill="none" xmlns="http://www.w3.org/2000/svg">
<path d="M24.9548 21.7801V8.44867C24.9548 3.78222 21.2085 0 16.5864 0H10.8515C7.00481 0 3.83569 2.07511 2.48316 6.19041H15.5326C17.0412 6.19041 18.2647 7.42559 18.2647 8.9487V21.6277C18.2647 23.0256 17.2353 24.1798 15.9005 24.3613C15.7798 24.3774 15.6566 24.386 15.5318 24.386H11.9045C10.3958 24.386 9.17241 23.1508 9.17241 21.6277V13.2497H11.988L5.994 7.24755L0 13.2497H2.48316V21.7784C2.48316 25.041 4.31409 27.8709 6.99638 29.2781C7.90594 29.756 8.91338 30.0704 9.97988 30.1811C10.2668 30.2118 10.557 30.2263 10.8515 30.2263L14.2391 30.2177C16.94 30.2177 18.2832 31.2732 18.2655 33.4403H24.9548C24.9548 31.7102 24.9548 29.463 21.8962 28.3053C21.9156 28.313 21.9274 28.2798 21.9426 28.267C23.7828 26.7183 24.9539 24.386 24.9539 21.7776L24.9548 21.7801Z" fill="#4234F0"/>
</svg>
