<svg width="149" height="37" viewBox="0 0 149 37" fill="none" xmlns="http://www.w3.org/2000/svg">
<path d="M42.2528 26.9788C36.5399 26.5337 35.5273 22.8032 35.5273 17.5369C35.5273 11.9483 36.683 7.98828 43.4619 7.98828C50.2407 7.98828 51.3964 11.9483 51.3964 17.5369C51.3964 21.8437 50.7198 24.9809 47.249 26.1401L51.053 26.8082L50.6796 28.8435L42.2538 26.9788H42.2528ZM38.359 17.5369C38.359 22.627 39.1301 24.8301 43.4619 24.8301C47.7936 24.8301 48.5647 22.627 48.5647 17.5369C48.5647 12.4468 47.7936 10.2438 43.4619 10.2438C39.1301 10.2438 38.359 12.4468 38.359 17.5369Z" fill="#5E5E5E"/>
<path d="M57.1019 21.944C57.1019 24.0234 58.0686 24.9773 59.7867 24.9773C60.8965 24.9773 62.303 24.5903 63.9631 23.8219V13.5273H66.7284V26.8458H64.5835L64.3421 25.6688C62.4031 26.59 60.5578 27.0857 59.0016 27.0857C56.2915 27.0857 54.3367 25.6867 54.3367 22.644V13.5273H57.1019V21.944Z" fill="#5E5E5E"/>
<path d="M69.9962 13.9845C71.341 13.7025 73.3492 13.293 75.2694 13.293C78.1956 13.293 80.9318 14.2338 80.9318 17.9502V26.8466H78.8432L78.7065 25.7428C76.7938 26.5721 74.9007 27.0865 73.3136 27.0865C70.7748 27.0865 68.9519 25.8355 68.9519 22.7564C68.9519 19.6772 71.0275 18.6352 75.1833 18.6352C76.1088 18.6352 77.1101 18.6914 78.1657 18.7851V17.9614C78.1657 15.9205 76.5991 15.3629 74.663 15.3629C73.1882 15.3629 71.5468 15.6834 70.2957 15.8971L69.9962 13.9845ZM78.1675 20.3444C77.0352 20.2319 76.0957 20.1776 75.3068 20.1776C72.1691 20.1776 71.6049 21.0087 71.6049 22.5942C71.6049 24.355 72.55 25.0222 73.9827 25.0222C75.1534 25.0222 76.6328 24.5799 78.1675 23.8715V20.3444Z" fill="#5E5E5E"/>
<path d="M93.464 26.8457L93.333 25.8028C91.3782 26.6208 89.6535 27.1118 88.219 27.1118C85.2843 27.1118 83.439 25.0971 83.439 20.2141C83.439 15.3311 85.1121 13.2621 88.4988 13.2621C89.6863 13.2621 91.1124 13.5347 92.7875 14.0623L92.7921 6.80664H95.5574L95.5527 26.8457H93.464ZM92.7875 16.0442C91.206 15.6056 90.0241 15.3976 89.0537 15.3976C86.9659 15.3976 86.2033 16.7854 86.2033 20.2151C86.2033 23.8574 87.1288 25.0297 88.7355 25.0297C89.7836 25.0297 91.0993 24.6689 92.7875 24.0626V16.0442Z" fill="#5E5E5E"/>
<path d="M100.891 15.1921C102.115 13.6328 103.607 13.2617 104.857 13.2617C105.622 13.2617 106.298 13.4004 106.77 13.4913L106.393 15.5463C106.065 15.4526 105.514 15.342 104.877 15.342C103.699 15.342 102.466 15.6297 101.382 17.0831V26.8313H98.6172V13.5129H100.547L100.891 15.1921Z" fill="#5E5E5E"/>
<path d="M108.895 13.9845C110.24 13.7025 112.248 13.293 114.168 13.293C117.094 13.293 119.831 14.2338 119.831 17.9502V26.8466H117.742L117.605 25.7428C115.692 26.5721 113.799 27.0865 112.212 27.0865C109.673 27.0865 107.851 25.8355 107.851 22.7564C107.851 19.6772 109.926 18.6352 114.082 18.6352C115.007 18.6352 116.009 18.6914 117.064 18.7851V17.9614C117.064 15.9205 115.498 15.3629 113.562 15.3629C112.087 15.3629 110.446 15.6834 109.194 15.8971L108.895 13.9845ZM117.066 20.3444C115.934 20.2319 114.994 20.1776 114.206 20.1776C111.068 20.1776 110.504 21.0087 110.504 22.5942C110.504 24.355 111.449 25.0222 112.881 25.0222C114.052 25.0222 115.532 24.5799 117.066 23.8715V20.3444Z" fill="#5E5E5E"/>
<path d="M125.224 14.8009C127.481 13.7354 129.24 13.2969 130.8 13.2969C133.496 13.2969 135.436 14.6959 135.436 17.7292V26.8458H132.671V18.4292C132.671 16.3498 131.704 15.3959 129.986 15.3959C128.885 15.3959 127.581 15.737 125.603 16.6478V26.8458H122.838V13.5274H124.983L125.224 14.8018V14.8009Z" fill="#5E5E5E"/>
<path d="M148.238 13.5273V15.6207H142.919V22.732C142.919 24.4825 143.654 25.0063 144.914 25.0063C145.815 25.0063 146.943 24.7383 148.143 24.4572L148.493 26.3791C146.834 26.8054 145.306 27.1109 144.024 27.1109C141.652 27.1109 140.154 25.9743 140.154 22.7311V15.6197H137.167V13.5263H140.154V9.54102H142.919V13.5263H148.238V13.5273Z" fill="#5E5E5E"/>
<path d="M27.816 24.0986V9.34802C27.816 4.18484 23.7142 0 18.6535 0H12.3742C8.16252 0 4.69263 2.296 3.21174 6.84937H17.4996C19.1514 6.84937 20.491 8.21604 20.491 9.90129V23.9299C20.491 25.4766 19.3639 26.7537 17.9024 26.9545C17.7703 26.9724 17.6354 26.9818 17.4987 26.9818H13.5272C11.8754 26.9818 10.5358 25.6152 10.5358 23.9299V14.6601H13.6186L7.05578 8.01905L0.49292 14.6601H3.21174V24.0968C3.21174 27.7066 5.21644 30.8377 8.15328 32.3948C9.14916 32.9236 10.2522 33.2714 11.4199 33.3939C11.734 33.4278 12.0518 33.4438 12.3742 33.4438L16.0834 33.4344C19.0406 33.4344 20.5113 34.6022 20.4919 37H27.816C27.816 35.0857 27.816 32.5993 24.4671 31.3184C24.4884 31.3269 24.5013 31.2901 24.5179 31.276C26.5328 29.5625 27.8151 26.9818 27.8151 24.0958L27.816 24.0986Z" fill="#5E5E5E"/>
</svg>
