<svg width="2227" height="937" viewBox="0 0 2227 937" fill="none" xmlns="http://www.w3.org/2000/svg">
<path d="M370.269 317.837C376.565 270.98 416.617 234.845 465.122 234.845C540.198 231.318 698.74 232.972 728.882 232.972L728.882 0.0292537L459.92 0.0292569C369.412 0.029258 288.481 41.1398 234.744 105.738C234.301 106.271 233.148 106.686 233.414 107.367C193.244 -0.000464036 115.269 -0.000341036 55.2356 -0.00034032L0.381825 -0.000339666L0.381828 232.972L23.8818 232.972L25.8413 232.972L55.011 232.972C130.208 232.35 167.055 281.347 167.055 376.156L166.76 555.603C166.76 565.94 167.262 576.129 168.326 586.2C172.169 623.637 183.076 659.002 199.658 690.931C248.489 785.088 346.682 849.361 459.89 849.361L2018.11 849.362L2018.11 936.529L2226.38 726.119L2018.11 515.708L2018.11 614.546L465.122 614.545C412.272 614.545 369.412 571.598 369.412 518.64L369.412 330.78C369.412 326.396 369.708 322.072 370.269 317.837Z" fill="#4234F0"/>
</svg>
