<svg width="2360" height="937" viewBox="0 0 2360 937" fill="none" xmlns="http://www.w3.org/2000/svg">
<path d="M503.888 618.693C510.184 665.549 550.235 701.684 598.741 701.684C673.817 705.211 832.358 703.557 862.5 703.557L862.5 936.5L593.538 936.5C503.03 936.5 422.1 895.389 368.362 830.791C367.919 830.258 366.766 829.843 367.032 829.162C326.862 936.53 248.887 936.53 188.854 936.53L-4.0937e-05 936.53L-3.08258e-05 705.211L76.0996 705.211C87.7173 705.211 147.122 703.557 159.46 703.557L188.629 703.557C263.826 704.179 300.674 655.183 300.674 560.374L300.378 380.926C300.378 370.589 300.881 360.4 301.945 350.33C305.787 312.892 316.694 277.527 333.277 245.598C382.107 151.441 480.3 87.1682 593.509 87.1682L2151.73 87.1675L2151.73 -9.10369e-06L2360 210.411L2151.73 420.821L2151.73 321.984L598.741 321.985C545.89 321.985 503.031 364.932 503.031 417.89L503.031 605.749C503.031 610.133 503.326 614.457 503.888 618.693Z" fill="#4234F0"/>
</svg>
