<svg width="104" height="16" viewBox="0 0 104 16" fill="none" xmlns="http://www.w3.org/2000/svg">
<path d="M0 15V0H4V15H0Z" fill="#4234F0"/>
<path d="M5 9.5V5.5H8.5V0H12.5V15H8.5V9.5H5Z" fill="#4234F0"/>
<path d="M23.5 3.5V4.5C23.5 4.5 23 3 20 3C16.6748 3 14.2179 6.1868 14.5 9.5C14.7697 12.6672 16.8214 15 20 15C23 15 23.5 13 23.5 13V14.5H27V3.5H23.5Z" fill="#4234F0"/>
<path d="M33 3.5H28.5L32 9L28 15H32.5L34.5 11.5L36.5 15H41L37 9L40.5 3.5H36.5L34.5 6.5L33 3.5Z" fill="#4234F0"/>
<path d="M44 4V0H48L44 4Z" fill="#4234F0"/>
<path d="M48.5 15H52V5C52 4.44773 52.4477 4.00002 53 4H56V0H50C49.1716 0 48.5 0.671573 48.5 1.5V15Z" fill="#4234F0"/>
<path d="M58 3V15.2281H61.5V8.6908C61.5 7.58623 62.3954 6.6908 63.5 6.6908H64C64 5 64 3 64 3C63.9605 3.06924 63.5 3 62.5 3.5C61.5 4 61 5.23036 61 5.23036V3H58Z" fill="#4234F0"/>
<path d="M73.5 3.5V4.5C73.5 4.5 73 3 70 3C66.6748 3 64.2179 6.1868 64.5 9.5C64.7697 12.6672 66.8214 15 70 15C73 15 73.5 13 73.5 13V14.5H77V3.5H73.5Z" fill="#4234F0"/>
<path d="M91.004 8H87.504C87.504 8 87.504 6 85.004 6C82 6 82 9 82 9C82 9 82 12 85.0002 12C87.5 12 87.5 10.5 87.5 10.5H91.004C91.004 10.5 91.004 15 85.004 15C79 15 79 9 79 9C79 9 79.004 3 85.004 3C91.004 3 91.004 8 91.004 8Z" fill="#4234F0"/>
<path d="M103.5 11H100C100 11 99.7729 12 98 12C95.5 12 95.5 10 95.5 10H103.5C103.5 10 104.5 3 98 3C92 3 92 9 92 9C92 9 92 14.9999 98 15C103.5 15.0001 103.5 11 103.5 11Z" fill="#4234F0"/>
<path d="M100 7.49977H96C96 7.49977 96 5.5 98 5.5C100 5.5 100 7.49977 100 7.49977Z" fill="white"/>
<path d="M73.8 8.9C73.8 10.5016 72.5016 11.8 70.9 11.8C69.2984 11.8 68 10.5016 68 8.9C68 7.29837 69.2984 6 70.9 6C72.5016 6 73.8 7.29837 73.8 8.9Z" fill="white"/>
<path d="M23.8 8.9C23.8 10.5016 22.5016 11.8 20.9 11.8C19.2984 11.8 18 10.5016 18 8.9C18 7.29837 19.2984 6 20.9 6C22.5016 6 23.8 7.29837 23.8 8.9Z" fill="white"/>
</svg>
