<svg width="88" height="17" viewBox="0 0 88 17" fill="none" xmlns="http://www.w3.org/2000/svg">
<path d="M86.9062 4.27255V6.54528H81.1562V4.27255H86.9062ZM82.2699 2.18164H85.4062V10.193C85.4062 10.3142 85.4271 10.4165 85.4688 10.4998C85.5104 10.5794 85.5748 10.64 85.6619 10.6816C85.7491 10.7195 85.8608 10.7385 85.9972 10.7385C86.0919 10.7385 86.2017 10.7271 86.3267 10.7044C86.4555 10.6816 86.5502 10.6627 86.6108 10.6475L87.0653 12.8521C86.9252 12.8938 86.7244 12.9449 86.4631 13.0055C86.2055 13.0661 85.8987 13.1059 85.5426 13.1248C84.8229 13.1627 84.2187 13.0888 83.7301 12.9032C83.2415 12.7138 82.8741 12.4165 82.6278 12.0112C82.3816 11.6059 82.2623 11.0983 82.2699 10.4885V2.18164Z" fill="#4234F0"/>
<path d="M76.1494 13.1582C75.2176 13.1582 74.4146 12.9802 73.7403 12.6241C73.0699 12.2643 72.5528 11.7491 72.1892 11.0787C71.8293 10.4044 71.6494 9.5976 71.6494 8.6582C71.6494 7.75669 71.8312 6.96881 72.1949 6.29457C72.5585 5.62032 73.0718 5.0957 73.7346 4.7207C74.3975 4.3457 75.1797 4.1582 76.0812 4.1582C76.7403 4.1582 77.3369 4.26048 77.871 4.46502C78.4051 4.66957 78.8615 4.96691 79.2403 5.35707C79.6191 5.74343 79.9108 6.21313 80.1153 6.76616C80.3199 7.31919 80.4221 7.94229 80.4221 8.63548V9.36275H72.6267V7.63548H77.5358C77.532 7.38548 77.4676 7.16578 77.3426 6.97638C77.2214 6.7832 77.0566 6.63358 76.8483 6.52752C76.6437 6.41767 76.4108 6.36275 76.1494 6.36275C75.8956 6.36275 75.6627 6.41767 75.4506 6.52752C75.2384 6.63358 75.068 6.78131 74.9392 6.9707C74.8142 7.1601 74.7479 7.38169 74.7403 7.63548V9.49911C74.7403 9.77942 74.799 10.0294 74.9165 10.2491C75.0339 10.4688 75.2024 10.6412 75.4221 10.7662C75.6418 10.8912 75.907 10.9537 76.2176 10.9537C76.4335 10.9537 76.6305 10.9234 76.8085 10.8627C76.9903 10.8021 77.1456 10.715 77.2744 10.6014C77.4032 10.484 77.4979 10.3438 77.5585 10.1809H80.4221C80.3237 10.787 80.0907 11.3135 79.7233 11.7605C79.3559 12.2037 78.8691 12.5484 78.2631 12.7946C77.6608 13.037 76.9562 13.1582 76.1494 13.1582Z" fill="#4234F0"/>
<path d="M66.415 13.1582C65.4832 13.1582 64.6802 12.9802 64.006 12.6241C63.3355 12.2643 62.8184 11.7491 62.4548 11.0787C62.095 10.4044 61.915 9.5976 61.915 8.6582C61.915 7.75669 62.0969 6.96881 62.4605 6.29457C62.8241 5.62032 63.3374 5.0957 64.0003 4.7207C64.6631 4.3457 65.4453 4.1582 66.3469 4.1582C67.0059 4.1582 67.6025 4.26048 68.1366 4.46502C68.6707 4.66957 69.1272 4.96691 69.506 5.35707C69.8847 5.74343 70.1764 6.21313 70.381 6.76616C70.5855 7.31919 70.6878 7.94229 70.6878 8.63548V9.36275H62.8923V7.63548H67.8014C67.7976 7.38548 67.7332 7.16578 67.6082 6.97638C67.487 6.7832 67.3222 6.63358 67.1139 6.52752C66.9094 6.41767 66.6764 6.36275 66.415 6.36275C66.1613 6.36275 65.9283 6.41767 65.7162 6.52752C65.5041 6.63358 65.3336 6.78131 65.2048 6.9707C65.0798 7.1601 65.0135 7.38169 65.006 7.63548V9.49911C65.006 9.77942 65.0647 10.0294 65.1821 10.2491C65.2995 10.4688 65.4681 10.6412 65.6878 10.7662C65.9075 10.8912 66.1726 10.9537 66.4832 10.9537C66.6991 10.9537 66.8961 10.9234 67.0741 10.8627C67.2559 10.8021 67.4113 10.715 67.54 10.6014C67.6688 10.484 67.7635 10.3438 67.8241 10.1809H70.6878C70.5893 10.787 70.3563 11.3135 69.9889 11.7605C69.6215 12.2037 69.1347 12.5484 68.5287 12.7946C67.9264 13.037 67.2219 13.1582 66.415 13.1582Z" fill="#4234F0"/>
<path d="M60.6354 1.36328V12.9996H57.499V1.36328H60.6354Z" fill="#4234F0"/>
<path d="M56.2882 4.27291V6.54563H50.4473V4.27291H56.2882ZM51.5609 13.0002V4.02291C51.5609 3.30321 51.6897 2.70662 51.9473 2.23313C52.2048 1.75965 52.5685 1.40548 53.0382 1.17063C53.5079 0.935784 54.0609 0.818359 54.6973 0.818359C55.095 0.818359 55.4814 0.848663 55.8564 0.909269C56.2351 0.969875 56.5154 1.02291 56.6973 1.06836L56.2427 3.31836C56.1291 3.28427 55.9965 3.25775 55.845 3.23881C55.6935 3.21609 55.5609 3.20472 55.4473 3.20472C55.1518 3.20472 54.9529 3.26722 54.8507 3.39222C54.7484 3.51722 54.6973 3.682 54.6973 3.88654V13.0002H51.5609Z" fill="#4234F0"/>
<path d="M46.3271 13V4.27273H49.4635V13H46.3271ZM47.8953 3.36364C47.4711 3.36364 47.1075 3.22348 46.8044 2.94318C46.5014 2.66288 46.3499 2.32576 46.3499 1.93182C46.3499 1.53788 46.5014 1.20076 46.8044 0.920454C47.1075 0.640151 47.4711 0.5 47.8953 0.5C48.3234 0.5 48.687 0.640151 48.9862 0.920454C49.2893 1.20076 49.4408 1.53788 49.4408 1.93182C49.4408 2.32576 49.2893 2.66288 48.9862 2.94318C48.687 3.22348 48.3234 3.36364 47.8953 3.36364Z" fill="#4234F0"/>
<path d="M40.1404 16.4537C39.2654 16.4537 38.5154 16.3287 37.8904 16.0787C37.2691 15.8324 36.7862 15.4915 36.4415 15.0559C36.1006 14.6241 35.9093 14.1279 35.8676 13.5673H38.8904C38.9207 13.7529 38.9964 13.9025 39.1176 14.0162C39.2388 14.1298 39.3941 14.2112 39.5835 14.2605C39.7767 14.3135 39.9926 14.34 40.2313 14.34C40.6366 14.34 40.9718 14.2415 41.2369 14.0446C41.5059 13.8476 41.6404 13.4915 41.6404 12.9764V11.4991H41.5494C41.4358 11.7946 41.2616 12.0465 41.0267 12.2548C40.7919 12.4593 40.5097 12.6165 40.1801 12.7264C39.8506 12.8324 39.4888 12.8855 39.0949 12.8855C38.4737 12.8855 37.9017 12.7415 37.379 12.4537C36.8601 12.1658 36.4434 11.7093 36.129 11.0843C35.8184 10.4593 35.6631 9.64305 35.6631 8.63548C35.6631 7.58245 35.826 6.72639 36.1517 6.06729C36.4813 5.4082 36.9055 4.92525 37.4244 4.61843C37.9472 4.31161 38.4964 4.1582 39.0722 4.1582C39.504 4.1582 39.8828 4.23396 40.2085 4.38548C40.5343 4.5332 40.807 4.73207 41.0267 4.98207C41.2464 5.22828 41.4131 5.49911 41.5267 5.79457H41.5949V4.27184H44.7313V12.9764C44.7313 13.715 44.54 14.3419 44.1574 14.8571C43.7786 15.376 43.2445 15.7718 42.5551 16.0446C41.8657 16.3173 41.0608 16.4537 40.1404 16.4537ZM40.254 10.6582C40.5419 10.6582 40.7881 10.5787 40.9926 10.4196C41.201 10.2567 41.3601 10.0256 41.4699 9.72638C41.5835 9.42335 41.6404 9.05972 41.6404 8.63548C41.6404 8.20366 41.5835 7.83434 41.4699 7.52752C41.3601 7.21692 41.201 6.98017 40.9926 6.81729C40.7881 6.65063 40.5419 6.56729 40.254 6.56729C39.9661 6.56729 39.7199 6.65063 39.5154 6.81729C39.3146 6.98017 39.1593 7.21692 39.0494 7.52752C38.9434 7.83434 38.8904 8.20366 38.8904 8.63548C38.8904 9.06729 38.9434 9.43472 39.0494 9.73775C39.1593 10.037 39.3146 10.2662 39.5154 10.4252C39.7199 10.5806 39.9661 10.6582 40.254 10.6582Z" fill="#4234F0"/>
<path d="M30.1409 13.1582C29.1939 13.1582 28.3833 12.9707 27.7091 12.5957C27.0348 12.2169 26.5178 11.6904 26.1579 11.0162C25.7981 10.3381 25.6182 9.55214 25.6182 8.6582C25.6182 7.76426 25.7981 6.98017 26.1579 6.30593C26.5178 5.6279 27.0348 5.10138 27.7091 4.72638C28.3833 4.3476 29.1939 4.1582 30.1409 4.1582C31.0879 4.1582 31.8985 4.3476 32.5727 4.72638C33.247 5.10138 33.764 5.6279 34.1238 6.30593C34.4837 6.98017 34.6636 7.76426 34.6636 8.6582C34.6636 9.55214 34.4837 10.3381 34.1238 11.0162C33.764 11.6904 33.247 12.2169 32.5727 12.5957C31.8985 12.9707 31.0879 13.1582 30.1409 13.1582ZM30.1636 10.84C30.4288 10.84 30.6579 10.751 30.8511 10.573C31.0443 10.3949 31.1939 10.1412 31.3 9.81161C31.406 9.48207 31.4591 9.09002 31.4591 8.63548C31.4591 8.17714 31.406 7.7851 31.3 7.45934C31.1939 7.12979 31.0443 6.87601 30.8511 6.69798C30.6579 6.51995 30.4288 6.43093 30.1636 6.43093C29.8833 6.43093 29.6428 6.51995 29.442 6.69798C29.2413 6.87601 29.0879 7.12979 28.9818 7.45934C28.8757 7.7851 28.8227 8.17714 28.8227 8.63548C28.8227 9.09002 28.8757 9.48207 28.9818 9.81161C29.0879 10.1412 29.2413 10.3949 29.442 10.573C29.6428 10.751 29.8833 10.84 30.1636 10.84Z" fill="#4234F0"/>
<path d="M16.75 12.9996V1.36328H19.9091V10.4542H24.6136V12.9996H16.75Z" fill="#4234F0"/>
<path d="M5.32381 9.53516H1.66406L5.32381 13.1949V9.53516Z" fill="#4234F0"/>
<path d="M7.0977 7.76367H0L0.998114 8.87269L5.98868 8.85434V13.8633L7.0977 14.8614V7.76367Z" fill="#4234F0"/>
<path d="M7.76367 7.76367H14.8614V14.8614H7.76367V7.76367Z" fill="#4234F0"/>
<path d="M0 0H7.0977V7.0977H0V0Z" fill="#4234F0"/>
<path d="M14.8614 0V7.0977H7.76367V0H14.8614Z" fill="#4234F0"/>
</svg>
