<svg width="87" height="117" viewBox="0 0 87 117" fill="none" xmlns="http://www.w3.org/2000/svg">
<path d="M86.493 76.2435V29.9651C86.493 13.7662 73.5826 0.636719 57.6538 0.636719H37.8898C24.6333 0.636719 13.7117 7.84018 9.05059 22.1259H54.022C59.2211 22.1259 63.4374 26.4136 63.4374 31.7009V75.7142C63.4374 80.5668 59.8899 84.5736 55.2898 85.2035C54.874 85.2597 54.4495 85.2892 54.0191 85.2892H41.5187C36.3196 85.2892 32.1033 81.0014 32.1033 75.7142V46.6312H41.8065L21.1498 25.7956L0.493042 46.6312H9.05059V76.2376C9.05059 87.5632 15.3604 97.3867 24.6042 102.272C27.7388 103.931 31.2106 105.022 34.8861 105.406C35.8747 105.513 36.875 105.563 37.8898 105.563L49.5644 105.533C58.8722 105.533 63.5014 109.197 63.4403 116.72H86.493C86.493 110.714 86.493 102.913 75.9524 98.8948C76.0193 98.9214 76.06 98.8061 76.1123 98.7617C82.4542 93.3857 86.4901 85.2892 86.4901 76.2346L86.493 76.2435Z" fill="#F0FFFF"/>
</svg>
