<svg width="342" height="679" viewBox="0 0 342 679" fill="none" xmlns="http://www.w3.org/2000/svg">
<path d="M124.087 425.131C105.794 422.674 91.6863 407.049 91.6863 388.124C90.3092 358.834 90.9549 11.7597 90.9549 0L0.0115967 0L0.0115967 390.154C0.0115967 425.465 16.0616 457.04 41.2814 478.005C41.4895 478.178 41.6514 478.628 41.9174 478.524C-3.05176e-05 494.196 0 524.618 0 548.039V679H90.3092V621.719L90.3092 592.029C90.3092 587.497 90.9549 564.32 90.9549 559.507V548.127C90.7121 518.789 109.841 504.414 146.855 504.414L193.282 504.529C197.318 504.529 201.296 504.333 205.228 503.918C219.844 502.418 233.65 498.163 246.116 491.694C282.876 472.643 307.969 434.333 307.969 390.166L307.969 304.247H342L259.853 222.992L177.707 304.247H216.294L216.294 388.124C216.294 408.744 199.527 425.465 178.851 425.465L129.14 425.465C127.429 425.465 125.741 425.35 124.087 425.131Z" fill="#4234F0"/>
</svg>
