<svg width="403" height="330" viewBox="0 0 403 330" fill="none" xmlns="http://www.w3.org/2000/svg">
<path d="M37.0452 164.519C16.9415 164.519 0.493042 148.067 0.493042 127.959V36.5597C0.493042 16.4519 16.9415 0 37.0452 0H183.254C203.358 0 219.806 16.4519 219.806 36.5597V127.959C219.806 148.067 203.358 164.519 183.254 164.519H146.702V219.358L91.8736 164.519H37.0452ZM366.015 274.198C386.119 274.198 402.567 257.746 402.567 237.638V146.239C402.567 126.131 386.119 109.679 366.015 109.679H256.358V127.959C256.358 168.175 223.461 201.078 183.254 201.078V237.638C183.254 257.746 199.703 274.198 219.806 274.198H256.358V329.037L311.187 274.198H366.015Z" fill="#4234F0"/>
<path d="M135.152 89.5723V52.4964C135.152 39.5186 124.644 29 111.678 29H95.5914C84.8013 29 75.9116 34.771 72.1177 46.216H108.722C112.954 46.216 116.386 49.6511 116.386 53.887V89.1482C116.386 93.0358 113.499 96.2459 109.754 96.7505C109.416 96.7955 109.07 96.8192 108.72 96.8192H98.5452C94.3134 96.8192 90.8815 93.3841 90.8815 89.1482V65.8484H98.7795L81.9659 49.156L65.1522 65.8484H72.1177V89.5675C72.1177 98.641 77.2536 106.511 84.7776 110.425C87.329 111.754 90.1549 112.628 93.1465 112.936C93.9512 113.021 94.7654 113.062 95.5914 113.062L105.094 113.038C112.67 113.038 116.438 115.973 116.388 122H135.152C135.152 117.188 135.152 110.939 126.573 107.719C126.627 107.741 126.66 107.648 126.703 107.613C131.865 103.306 135.15 96.8192 135.15 89.5651L135.152 89.5723Z" fill="#F0FFFF"/>
</svg>
