<svg width="403" height="330" viewBox="0 0 403 330" fill="none" xmlns="http://www.w3.org/2000/svg">
<path d="M37.0452 164.519C16.9415 164.519 0.493042 148.067 0.493042 127.959V36.5597C0.493042 16.4519 16.9415 0 37.0452 0H183.254C203.358 0 219.806 16.4519 219.806 36.5597V127.959C219.806 148.067 203.358 164.519 183.254 164.519H146.702V219.358L91.8736 164.519H37.0452ZM366.015 274.198C386.119 274.198 402.567 257.746 402.567 237.638V146.239C402.567 126.131 386.119 109.679 366.015 109.679H256.358V127.959C256.358 168.175 223.461 201.078 183.254 201.078V237.638C183.254 257.746 199.703 274.198 219.806 274.198H256.358V329.037L311.187 274.198H366.015Z" fill="#4234F0"/>
</svg>
