<svg width="1676" height="596" viewBox="0 0 1676 596" fill="none" xmlns="http://www.w3.org/2000/svg">
<path d="M1675.5 596L199.791 596L199.851 595.98C138.15 595.98 85.4367 577.489 46.3458 524.059C39.3047 514.436 31.9436 499.901 27.63 490.852C25.0348 485.408 23.1501 479.671 21.6758 473.823C11.9298 435.165 0.201276 400.065 0.201279 340.077L-0.000255469 259.169C-0.000255162 252.136 0.342274 245.203 1.06774 238.352C3.68725 212.88 11.1229 188.82 22.4274 167.096C55.7159 103.035 122.655 59.3061 199.831 59.3061L657.021 59.3058L657.021 -4.45191e-05L798.999 143.156L657.021 286.312L657.021 219.067L203.398 219.067C167.369 219.067 138.151 248.287 138.151 284.317L138.15 370.949C138.15 373.931 138.352 376.873 138.735 379.755C143.027 411.635 170.331 436.219 203.398 436.219L1675.5 436.219L1675.5 596Z" fill="#4234F0"/>
</svg>
