<svg width="1602" height="988" viewBox="0 0 1602 988" fill="none" xmlns="http://www.w3.org/2000/svg">
<path d="M295.241 702.76L764.768 702.76L764.678 702.79C856.543 702.79 938.688 744.422 993.231 809.84C993.681 810.38 994.851 810.8 994.581 811.49C1035.35 702.76 1114.5 702.76 1175.43 702.76C1317.62 718.7 1309.04 653.078 1309.04 590.53L1309.04 246.483L1189.3 246.483L1411.61 1.68332e-05L1602 246.483L1496.4 246.483L1496.4 596.722C1496.4 730.703 1489.26 850.808 1375.19 908.598C1336.51 928.223 1329.41 928.697 1289.88 937.014C1278.34 939.441 1217.78 940.556 1205.26 940.556L1175.43 940.556C1099.11 939.926 1056.88 940.556 1056.88 988L855.419 988C849.033 940.586 808.693 940.586 759.511 940.586L759.397 940.586L312.852 940.586C259.209 940.586 214.434 934.37 214.434 988L0 988C1.95937e-06 823.691 130.892 702.76 295.241 702.76Z" fill="#4234F0"/>
</svg>
