<svg width="253" height="425" viewBox="0 0 253 425" fill="none" xmlns="http://www.w3.org/2000/svg">
<path d="M0.000144348 344.063L16.7776 344.055L16.7522 344.063C42.6717 344.063 65.8487 355.82 81.2379 374.293C81.3648 374.446 81.6949 374.564 81.6187 374.759C93.1225 344.055 115.453 344.055 132.645 344.055C172.764 348.556 170.342 330.025 170.342 312.362L170.342 69.6035L136.559 69.6035L199.281 -0.00042487L253 69.6035L223.206 69.6035L223.206 314.111C223.206 351.946 221.19 385.862 189.007 402.181C178.093 407.723 176.09 407.857 164.936 410.206C161.68 410.891 144.593 411.206 141.06 411.206L132.645 411.206C111.11 411.028 99.1976 411.206 99.1976 424.604L42.3546 424.604C40.5529 411.214 29.1709 411.214 15.2945 411.214L15.2624 411.214L1.59666e-07 411.214L0.000144348 344.063Z" fill="#4234F0"/>
</svg>
