<svg width="351" height="87" viewBox="0 0 351 87" fill="none" xmlns="http://www.w3.org/2000/svg">
<path d="M99.2499 63.4345C85.7394 62.388 83.345 53.6164 83.345 41.2335C83.345 28.0926 86.078 18.7812 102.109 18.7812C118.14 18.7812 120.873 28.0926 120.873 41.2335C120.873 51.3601 119.273 58.737 111.065 61.4625L120.061 63.0335L119.178 67.8192L99.2521 63.4345H99.2499ZM90.0415 41.2335C90.0415 53.2021 91.8651 58.3822 102.109 58.3822C112.353 58.3822 114.177 53.2021 114.177 41.2335C114.177 29.2648 112.353 24.0847 102.109 24.0847C91.8651 24.0847 90.0415 29.2648 90.0415 41.2335Z" fill="#4234F0"/>
<path d="M134.366 51.5992C134.366 56.4884 136.652 58.7315 140.715 58.7315C143.34 58.7315 146.666 57.8215 150.592 56.0147V31.8086H157.131V63.125H152.059L151.488 60.3575C146.903 62.5234 142.539 63.689 138.859 63.689C132.45 63.689 127.827 60.3994 127.827 53.2451V31.8086H134.366V51.5992Z" fill="#4234F0"/>
<path d="M164.859 32.8819C168.039 32.2187 172.789 31.2559 177.33 31.2559C184.25 31.2559 190.721 33.468 190.721 42.2066V63.1253H185.781L185.458 60.5297C180.935 62.4797 176.458 63.6893 172.704 63.6893C166.701 63.6893 162.39 60.7478 162.39 53.5076C162.39 46.2674 167.298 43.8172 177.126 43.8172C179.315 43.8172 181.683 43.9494 184.179 44.1698V42.233C184.179 37.4341 180.474 36.1231 175.896 36.1231C172.408 36.1231 168.526 36.8766 165.568 37.379L164.859 32.8819ZM184.183 47.8361C181.506 47.5717 179.284 47.4439 177.418 47.4439C169.998 47.4439 168.664 49.3983 168.664 53.1264C168.664 57.2665 170.899 58.8353 174.287 58.8353C177.055 58.8353 180.554 57.7953 184.183 56.1296V47.8361Z" fill="#4234F0"/>
<path d="M220.357 63.1228L220.048 60.6704C215.425 62.594 211.346 63.7485 207.953 63.7485C201.013 63.7485 196.649 59.0113 196.649 47.5296C196.649 36.0479 200.606 31.1829 208.615 31.1829C211.423 31.1829 214.796 31.824 218.757 33.0645L218.768 16.0039H225.308L225.297 63.1228H220.357ZM218.757 37.7246C215.017 36.6935 212.222 36.2043 209.927 36.2043C204.99 36.2043 203.187 39.4675 203.187 47.5318C203.187 56.0963 205.375 58.8527 209.175 58.8527C211.654 58.8527 214.765 58.0044 218.757 56.5788V37.7246Z" fill="#4234F0"/>
<path d="M237.922 35.7225C240.816 32.0561 244.344 31.1836 247.301 31.1836C249.111 31.1836 250.709 31.5097 251.824 31.7234L250.932 36.5554C250.158 36.335 248.854 36.075 247.347 36.075C244.563 36.075 241.646 36.7515 239.084 40.1689V63.0905H232.544V31.7741H237.107L237.922 35.7225Z" fill="#4234F0"/>
<path d="M256.849 32.8819C260.029 32.2187 264.779 31.2559 269.32 31.2559C276.24 31.2559 282.711 33.468 282.711 42.2066V63.1253H277.771L277.448 60.5297C272.925 62.4797 268.448 63.6893 264.694 63.6893C258.691 63.6893 254.38 60.7478 254.38 53.5076C254.38 46.2674 259.288 43.8172 269.116 43.8172C271.305 43.8172 273.673 43.9494 276.169 44.1698V42.233C276.169 37.4341 272.464 36.1231 267.886 36.1231C264.398 36.1231 260.516 36.8766 257.558 37.379L256.849 32.8819ZM276.173 47.8361C273.496 47.5717 271.274 47.4439 269.408 47.4439C261.988 47.4439 260.654 49.3983 260.654 53.1264C260.654 57.2665 262.889 58.8353 266.277 58.8353C269.045 58.8353 272.544 57.7953 276.173 56.1296V47.8361Z" fill="#4234F0"/>
<path d="M295.466 34.802C300.804 32.2968 304.962 31.2656 308.651 31.2656C315.027 31.2656 319.617 34.5552 319.617 41.6875V63.124H313.077V43.3334C313.077 38.4442 310.791 36.2012 306.728 36.2012C304.123 36.2012 301.041 37.0032 296.362 39.1448V63.124H289.823V31.8077H294.895L295.466 34.8042V34.802Z" fill="#4234F0"/>
<path d="M349.891 31.8067V36.729H337.312V53.4503C337.312 57.5662 339.05 58.7979 342.03 58.7979C344.159 58.7979 346.828 58.1677 349.665 57.5067L350.493 62.0258C346.569 63.0283 342.956 63.7466 339.926 63.7466C334.316 63.7466 330.773 61.0739 330.773 53.4481V36.7268H323.709V31.8045H330.773V22.4336H337.312V31.8045H349.891V31.8067Z" fill="#4234F0"/>
<path d="M65.1083 56.6644V21.9805C65.1083 9.84002 55.4082 0 43.4402 0H28.5907C18.6305 0 10.4247 5.39871 6.92257 16.1053H40.7115C44.6178 16.1053 47.7856 19.3188 47.7856 23.2814V56.2677C47.7856 59.9045 45.1203 62.9075 41.6641 63.3795C41.3516 63.4216 41.0327 63.4438 40.7093 63.4438H31.3172C27.4109 63.4438 24.2431 60.2303 24.2431 56.2677V34.4711H31.5335L16.0132 18.8556L0.49292 34.4711H6.92257V56.6599C6.92257 65.1481 11.6634 72.5103 18.6087 76.1715C20.9638 77.4148 23.5723 78.2326 26.3338 78.5207C27.0766 78.6005 27.8282 78.6382 28.5907 78.6382L37.3623 78.616C44.3556 78.616 47.8337 81.3619 47.7878 87H65.1083C65.1083 82.4988 65.1083 76.6525 57.1887 73.6406C57.239 73.6606 57.2695 73.5741 57.3089 73.5409C62.0737 69.5118 65.1061 63.4438 65.1061 56.6577L65.1083 56.6644Z" fill="#4234F0"/>
</svg>
