<svg width="496" height="983" viewBox="0 0 496 983" fill="none" xmlns="http://www.w3.org/2000/svg">
<path d="M295.566 854.978C324.97 851.032 347.646 825.935 347.646 795.541L495.874 795.541C495.874 852.255 474.186 901.629 429.694 936.735C385.202 971.841 377.308 976.856 258.969 982.315L184.343 982.5C177.857 982.5 171.463 982.185 165.143 981.518C141.65 979.111 119.457 972.276 99.421 961.885C40.334 931.287 0.000976563 869.758 0.000976563 798.82L0 0L147.355 0L147.356 795.541C147.356 828.658 174.307 855.515 207.54 855.515H287.444C290.194 855.515 292.908 855.329 295.566 854.978Z" fill="#C8F003"/>
</svg>
