<svg width="264" height="66" viewBox="0 0 264 66" fill="none" xmlns="http://www.w3.org/2000/svg">
<path d="M74.6277 47.9915C64.4527 47.1998 62.6494 40.5648 62.6494 31.1982C62.6494 21.2582 64.7077 14.2148 76.7811 14.2148C88.8544 14.2148 90.9127 21.2582 90.9127 31.1982C90.9127 38.8582 89.7077 44.4382 83.5261 46.4998L90.3011 47.6882L89.6361 51.3082L74.6294 47.9915H74.6277ZM67.6927 31.1982C67.6927 40.2515 69.0661 44.1698 76.7811 44.1698C84.4961 44.1698 85.8694 40.2515 85.8694 31.1982C85.8694 22.1448 84.4961 18.2265 76.7811 18.2265C69.0661 18.2265 67.6927 22.1448 67.6927 31.1982Z" fill="white"/>
<path d="M101.074 39.0384C101.074 42.7367 102.796 44.4334 105.856 44.4334C107.833 44.4334 110.338 43.745 113.294 42.3784V24.0684H118.219V47.7567H114.399L113.969 45.6634C110.516 47.3017 107.229 48.1834 104.458 48.1834C99.6311 48.1834 96.1494 45.695 96.1494 40.2834V24.0684H101.074V39.0384Z" fill="white"/>
<path d="M124.04 24.8804C126.435 24.3787 130.011 23.6504 133.431 23.6504C138.643 23.6504 143.516 25.3237 143.516 31.9337V47.7571H139.796L139.553 45.7937C136.146 47.2687 132.775 48.1837 129.948 48.1837C125.426 48.1837 122.18 45.9587 122.18 40.4821C122.18 35.0054 125.876 33.1521 133.278 33.1521C134.926 33.1521 136.71 33.2521 138.59 33.4187V31.9537C138.59 28.3237 135.8 27.3321 132.351 27.3321C129.725 27.3321 126.801 27.9021 124.573 28.2821L124.04 24.8804ZM138.593 36.1921C136.576 35.9921 134.903 35.8954 133.498 35.8954C127.91 35.8954 126.905 37.3737 126.905 40.1937C126.905 43.3254 128.588 44.5121 131.14 44.5121C133.225 44.5121 135.86 43.7254 138.593 42.4654V36.1921Z" fill="white"/>
<path d="M165.836 47.7549L165.603 45.8999C162.121 47.3549 159.05 48.2283 156.495 48.2283C151.268 48.2283 147.981 44.6449 147.981 35.9599C147.981 27.2749 150.961 23.5949 156.993 23.5949C159.108 23.5949 161.648 24.0799 164.631 25.0183L164.64 12.1133H169.565L169.556 47.7549H165.836ZM164.631 28.5433C161.815 27.7633 159.71 27.3933 157.981 27.3933C154.263 27.3933 152.905 29.8616 152.905 35.9616C152.905 42.4399 154.553 44.5249 157.415 44.5249C159.281 44.5249 161.625 43.8833 164.631 42.8049V28.5433Z" fill="white"/>
<path d="M179.065 27.0271C181.245 24.2537 183.901 23.5938 186.128 23.5938C187.491 23.5938 188.695 23.8404 189.535 24.0021L188.863 27.6571C188.28 27.4904 187.298 27.2937 186.163 27.2937C184.066 27.2937 181.87 27.8054 179.94 30.3904V47.7287H175.015V24.0404H178.451L179.065 27.0271Z" fill="white"/>
<path d="M193.319 24.8804C195.714 24.3787 199.291 23.6504 202.711 23.6504C207.922 23.6504 212.796 25.3237 212.796 31.9337V47.7571H209.076L208.832 45.7937C205.426 47.2687 202.054 48.1837 199.227 48.1837C194.706 48.1837 191.459 45.9587 191.459 40.4821C191.459 35.0054 195.156 33.1521 202.557 33.1521C204.206 33.1521 205.989 33.2521 207.869 33.4187V31.9537C207.869 28.3237 205.079 27.3321 201.631 27.3321C199.004 27.3321 196.081 27.9021 193.852 28.2821L193.319 24.8804ZM207.872 36.1921C205.856 35.9921 204.182 35.8954 202.777 35.8954C197.189 35.8954 196.184 37.3737 196.184 40.1937C196.184 43.3254 197.867 44.5121 200.419 44.5121C202.504 44.5121 205.139 43.7254 207.872 42.4654V36.1921Z" fill="white"/>
<path d="M222.402 26.3332C226.422 24.4382 229.554 23.6582 232.332 23.6582C237.134 23.6582 240.591 26.1465 240.591 31.5415V47.7565H235.666V32.7865C235.666 29.0882 233.944 27.3915 230.884 27.3915C228.922 27.3915 226.601 27.9982 223.077 29.6182V47.7565H218.152V24.0682H221.972L222.402 26.3349V26.3332Z" fill="white"/>
<path d="M263.391 24.0666V27.7899H253.918V40.4382C253.918 43.5516 255.226 44.4832 257.471 44.4832C259.074 44.4832 261.084 44.0066 263.221 43.5066L263.844 46.9249C260.889 47.6832 258.168 48.2266 255.886 48.2266C251.661 48.2266 248.993 46.2049 248.993 40.4366V27.7882H243.673V24.0649H248.993V16.9766H253.918V24.0649H263.391V24.0666Z" fill="white"/>
<path d="M49.2933 42.6133V16.53C49.2933 7.4 41.8933 0 32.7633 0H21.435C13.8367 0 7.57667 4.06 4.905 12.1117H30.6817C33.6617 12.1117 36.0783 14.5283 36.0783 17.5083V42.315C36.0783 45.05 34.045 47.3083 31.4083 47.6633C31.17 47.695 30.9267 47.7117 30.68 47.7117H23.515C20.535 47.7117 18.1183 45.295 18.1183 42.315V25.9233H23.68L11.84 14.18L0 25.9233H4.905V42.61C4.905 48.9933 8.52167 54.53 13.82 57.2833C15.6167 58.2183 17.6067 58.8333 19.7133 59.05C20.28 59.11 20.8533 59.1383 21.435 59.1383L28.1267 59.1217C33.4617 59.1217 36.115 61.1867 36.08 65.4267H49.2933C49.2933 62.0417 49.2933 57.645 43.2517 55.38C43.29 55.395 43.3133 55.33 43.3433 55.305C46.9783 52.275 49.2917 47.7117 49.2917 42.6083L49.2933 42.6133Z" fill="white"/>
</svg>
