<svg width="134" height="34" viewBox="0 0 134 34" fill="none" xmlns="http://www.w3.org/2000/svg">
<path d="M38.0074 24.5292C32.8563 24.1246 31.9434 20.7334 31.9434 15.946C31.9434 10.8655 32.9854 7.26559 39.0975 7.26559C45.2096 7.26559 46.2517 10.8655 46.2517 15.946C46.2517 19.8611 45.6416 22.7131 42.5122 23.7668L45.942 24.3742L45.6054 26.2244L38.0074 24.5292ZM34.4965 15.946C34.4965 20.5732 35.1918 22.5759 39.0975 22.5759C43.0032 22.5759 43.6985 20.5732 43.6985 15.946C43.6985 11.3187 43.0032 9.316 39.0975 9.316C35.1918 9.316 34.4965 11.3187 34.4965 15.946Z" fill="#C8F003"/>
<path d="M51.3956 19.9521C51.3956 21.8424 52.2672 22.7096 53.8163 22.7096C54.817 22.7096 56.0852 22.3577 57.582 21.6592V12.3008H60.0753V24.4082H58.1414L57.9237 23.3382C56.1755 24.1756 54.5116 24.6262 53.1084 24.6262C50.6649 24.6262 48.9023 23.3544 48.9023 20.5884V12.3008H51.3956V19.9521Z" fill="#C8F003"/>
<path d="M63.0217 12.7166C64.2342 12.4602 66.0449 12.0879 67.7762 12.0879C70.4146 12.0879 72.8818 12.9431 72.8818 16.3216V24.4091H70.9985L70.8753 23.4056C69.1507 24.1595 67.4438 24.6272 66.0128 24.6272C63.7237 24.6272 62.0801 23.4899 62.0801 20.6907C62.0801 17.8916 63.9515 16.9443 67.6986 16.9443C68.5331 16.9443 69.4359 16.9954 70.3876 17.0806V16.3318C70.3876 14.4765 68.9752 13.9696 67.2295 13.9696C65.8997 13.9696 64.4198 14.261 63.2917 14.4552L63.0217 12.7166ZM70.3893 18.4981C69.3684 18.3959 68.5213 18.3464 67.81 18.3464C64.9809 18.3464 64.4721 19.102 64.4721 20.5434C64.4721 22.144 65.3243 22.7505 66.6161 22.7505C67.6716 22.7505 69.0056 22.3484 70.3893 21.7044V18.4981Z" fill="#C8F003"/>
<path d="M84.1816 24.4083L84.0635 23.4601C82.3009 24.2038 80.7459 24.6502 79.4524 24.6502C76.8064 24.6502 75.1425 22.8187 75.1425 18.3797C75.1425 13.9407 76.6511 12.0598 79.7047 12.0598C80.7754 12.0598 82.0613 12.3077 83.5716 12.7873L83.5758 6.19141H86.0691L86.0648 24.4083H84.1816ZM83.5716 14.589C82.1456 14.1903 81.08 14.0012 80.205 14.0012C78.3226 14.0012 77.635 15.2628 77.635 18.3806C77.635 21.6917 78.4694 22.7574 79.9181 22.7574C80.8631 22.7574 82.0495 22.4294 83.5716 21.8783V14.589Z" fill="#C8F003"/>
<path d="M90.8784 13.8154C91.9821 12.3979 93.327 12.0605 94.4543 12.0605C95.1444 12.0605 95.7536 12.1866 96.1789 12.2692L95.8389 14.1374C95.5435 14.0522 95.0466 13.9517 94.472 13.9517C93.4105 13.9517 92.2985 14.2132 91.3214 15.5344V24.3962H88.8281V12.2888H90.5679L90.8784 13.8154Z" fill="#C8F003"/>
<path d="M98.0949 12.7166C99.3074 12.4602 101.118 12.0879 102.849 12.0879C105.488 12.0879 107.955 12.9431 107.955 16.3216V24.4091H106.072L105.949 23.4056C104.224 24.1595 102.517 24.6272 101.086 24.6272C98.7969 24.6272 97.1533 23.4899 97.1533 20.6907C97.1533 17.8916 99.0248 16.9443 102.772 16.9443C103.606 16.9443 104.509 16.9954 105.461 17.0806V16.3318C105.461 14.4765 104.048 13.9696 102.303 13.9696C100.973 13.9696 99.493 14.261 98.3649 14.4552L98.0949 12.7166ZM105.463 18.4981C104.442 18.3959 103.595 18.3464 102.883 18.3464C100.054 18.3464 99.5453 19.102 99.5453 20.5434C99.5453 22.144 100.398 22.7505 101.689 22.7505C102.745 22.7505 104.079 22.3484 105.463 21.7044V18.4981Z" fill="#C8F003"/>
<path d="M112.819 13.459C114.854 12.4905 116.439 12.0918 117.846 12.0918C120.276 12.0918 122.026 13.3636 122.026 16.1211V24.4087H119.533V16.7574C119.533 14.8671 118.662 13.9999 117.112 13.9999C116.119 13.9999 114.944 14.31 113.16 15.138V24.4087H110.667V12.3014H112.601L112.819 13.459Z" fill="#C8F003"/>
<path d="M133.569 12.3015V14.2045H128.773V20.6693C128.773 22.2605 129.436 22.7367 130.572 22.7367C131.384 22.7367 132.402 22.4931 133.483 22.2375L133.799 23.9847C132.303 24.3723 130.925 24.65 129.77 24.65C127.631 24.65 126.28 23.6167 126.28 20.6684V14.2037H123.587V12.3007H126.28V8.67773H128.773V12.3007L133.569 12.3015Z" fill="#C8F003"/>
<path d="M25.1823 21.7801V8.44867C25.1823 3.78222 21.436 0 16.814 0H11.079C7.23235 0 4.06323 2.07511 2.7107 6.19041H15.7601C17.2688 6.19041 18.4922 7.42559 18.4922 8.9487V21.6277C18.4922 23.0256 17.4628 24.1798 16.128 24.3613C16.0074 24.3774 15.8842 24.386 15.7593 24.386H12.132C10.6234 24.386 9.39995 23.1508 9.39995 21.6277V13.2497H12.2155L6.22154 7.24755L0.227539 13.2497H2.7107V21.7784C2.7107 25.041 4.54163 27.8709 7.22391 29.2781C8.13348 29.756 9.14091 30.0704 10.2074 30.1811C10.4943 30.2118 10.7845 30.2263 11.079 30.2263L14.4667 30.2177C17.1675 30.2177 18.5108 31.2732 18.493 33.4403H25.1823C25.1823 31.7102 25.1823 29.463 22.1237 28.3053C22.1431 28.313 22.1549 28.2798 22.1701 28.267C24.0103 26.7183 25.1814 24.386 25.1814 21.7776L25.1823 21.7801Z" fill="#C8F003"/>
</svg>
