<svg width="296" height="393" viewBox="0 0 296 393" fill="none" xmlns="http://www.w3.org/2000/svg">
<path d="M295.76 255.68V99.18C295.76 44.4 251.36 0 196.58 0H128.61C83.02 0 45.46 24.36 29.43 72.67H184.09C201.97 72.67 216.47 87.17 216.47 105.05V253.89C216.47 270.3 204.27 283.85 188.45 285.98C187.02 286.17 185.56 286.27 184.08 286.27H141.09C123.21 286.27 108.71 271.77 108.71 253.89V155.54H142.08L71.04 85.08L0 155.54H29.43V255.66C29.43 293.96 51.13 327.18 82.92 343.7C93.7 349.31 105.64 353 118.28 354.3C121.68 354.66 125.12 354.83 128.61 354.83L168.76 354.73C200.77 354.73 216.69 367.12 216.48 392.56H295.76C295.76 372.25 295.76 345.87 259.51 332.28C259.74 332.37 259.88 331.98 260.06 331.83C281.87 313.65 295.75 286.27 295.75 255.65L295.76 255.68Z" fill="#C8F003"/>
</svg>
