<svg width="354" height="467" viewBox="0 0 354 467" fill="none" xmlns="http://www.w3.org/2000/svg">
<path d="M353.493 304.164V117.987C353.493 52.8194 300.5 0 235.118 0H153.994C99.5805 0 54.7513 28.9793 35.6189 86.4502H220.211C241.551 86.4502 258.858 103.7 258.858 124.97V302.034C258.858 321.556 244.297 337.676 225.415 340.21C223.708 340.436 221.966 340.555 220.199 340.555H168.889C147.549 340.555 130.242 323.305 130.242 302.034V185.035H170.071L85.2819 101.213L0.493164 185.035H35.6189V304.14C35.6189 349.703 61.5186 389.222 99.4611 408.875C112.327 415.549 126.578 419.938 141.665 421.485C145.723 421.913 149.828 422.115 153.994 422.115L201.914 421.996C240.119 421.996 259.12 436.736 258.87 467H353.493C353.493 442.839 353.493 411.456 310.228 395.289C310.502 395.396 310.669 394.932 310.884 394.754C336.915 373.127 353.481 340.555 353.481 304.128L353.493 304.164Z" fill="#5E5E5E" fill-opacity="0.28"/>
</svg>
